/* XPM */
static char *_8eb975b1e7a49308975c87492719029sNnFLiCWp78U4qd8[] = {
/* columns rows colors chars-per-pixel */
"64 64 8 1 ",
"  c None",
". c #100D0D",
"X c #1B1616",
"o c #2D2727",
"O c #591010",
"+ c #BC1313",
"@ c #DBCDCD",
"# c #F0EAEA",
/* pixels */
"                                                                ",
"               XXXXXXXo                                         ",
"             XXXXXXXooooooo                                     ",
"           XXXXXXooooooooooo                                    ",
"         XXXXXXXooooooooooooo                                   ",
"        XXXXXXXXoooooooooooooo                                  ",
"        XXXXXXXooooooooooooooooo                                ",
"       XXXXXXXXoooo..oooooooooooo                               ",
"      XXXXXXoXoooo....oooooooooooo                              ",
"     XXXXXXXoooooo.#...ooooooooooooo                            ",
"     XXXXXXXoooooo.....oooooooooooooo                           ",
"    XXXXXXXoooooooo...oooooooooooooooo                          ",
"    XXXXXoXoooooooooooooooooooooooooooo                         ",
"   XXXXXoooooooooooooooooooooooooooooooo                        ",
"   XXXXXooooooooooooooooooooooooooooooooo                       ",
"   XXXXoo..oooooooooooo@@ooooooooooooooooo                      ",
"   XXXXo....oooooooo...@@oooooooooooooooooo                     ",
"   XXXXo.#...oooooo.....@@oooooooooooooooooo                    ",
"   XXXXo.....ooooo....+++oooooooooooooooooooo                   ",
"   XXXXoo...ooooo.....++++oooooooooooooooooooo                  ",
"   XXXXXXoooooooo......+++ooooooooooooooooooooo                 ",
"   XXXXXXXooooo@@......+++oooooooooooooooooooooo                ",
"   XXXXXXXooooo@@..OOOOO+++oooooooooXXooooooooooo               ",
"    XXXXXXoooooo@@OOOOOO+++oooooooooXXoooooooooooo              ",
"    XXXXXXooooooo@ooOOOOO++oooooooooXXXooooooooooo              ",
"     XXXXXoooooooooooooOOO+ooooooooo.XXXooooooooooo             ",
"     XXXXXXoooooooooooooOO++oooooooo.XXXooooooooooo             ",
"      XXXXXXooooooooooooOOO+oooooooo.XXXoooooooooooo            ",
"       XXXXXoooooooooooooOO+ooooooooo.XXoooooooooooo            ",
"       oXXXXXoooooooooooooO+ooooooooo.XXXooooooooooo            ",
"        XXXXXXoooooooooooooooooooooo..XXXooooooooooo            ",
"        XXoXXoooooooooooooooooooooo..XXXXXoooooooo.o            ",
"        XXXoooooooooooooooooooooooo..XXXXoooooooo..oo           ",
"        XXXoooooooo.oooooooooooooo..XXXoXoooooooo.ooo           ",
"        XXXoooooooo...ooooooooooo..XXXXooooooooo..ooo           ",
"        XXXXooooooooo..ooooooooo..XXooooooooooo..ooooo          ",
"        XXXXoooooooooo..ooooooo.X.oXooooooooooo.oooooo          ",
"         XXXooooooooooo..oooooo..Xooooooooooo...oooooo          ",
"         XXXXooooooooooo.oooooo..ooooooooooo..oooooooo          ",
"         XXXXXXooooooooo..oooooo...ooooooo...ooooooooo          ",
"         .XXXXXXooooooooo..ooooooo........oooooooooooo          ",
"          .XXXXXoooooooooo.ooooooooooooooooooooooooooo          ",
"          ..XXXoXXoooooooo.ooooooooooooooooooooooooooo          ",
"           ..XXXXXXXXooooo.ooooooooooooooooooooooooooo          ",
"            ..XXXXXXXXXooo.ooooooooooooooooooooooooooo          ",
"            XX..XXXXXXXX...ooooooooooooooooooooooooooo          ",
"            XXX..........ooooooooooooooooooooooooooooo          ",
"            XXXXoooooooooooooooooooooooooooooooooooooo          ",
"            XXXXoooooooooooooooooooooooooooooooooooooo          ",
"            XXXXXXXooooooooooooooooooooooooooooooooooo          ",
"            XXXXXXXooooooooooooooooooooooooooooooooooo          ",
"            XXXXXXoooooooooooooooooooooooooooooooooooo          ",
"            XXXooooooooooooooooooooooooooooooooooooooo          ",
"            XXXooooooooooooooooooooooooooooooooooooooo          ",
"            XXXoooooooooooooooooooooooooooXXoooooooooo          ",
"            XXoooooooooooooooooooooooooXXXXXXXoooooooo          ",
"            XXooooooXXXXXXXXXXXXXXXXXXXX    XXXooooooo          ",
"            XooooooXXXX                      XXooooooo          ",
"            XoooooXXXXX                      XXooooooo          ",
"            XoooooXXXXX                      XXXXooooo          ",
"            XooooXXXXX                        XXXooooo          ",
"            XXoooXXXX                         XXXooooo          ",
"             XXoooXX                           XXoXoo           ",
"              XXXXX                             XXXX            "
};
