/* XPM */
static char *fedbce203a3e4c2feeff387b6d60e61b804owMERgeNvXCYb[] = {
/* columns rows colors chars-per-pixel */
"64 64 8 1 ",
"  c None",
". c #100D0D",
"X c #1B1616",
"o c #2D2727",
"O c #591010",
"+ c #BC1313",
"@ c #DBCDCD",
"# c #F0EAEA",
/* pixels */
"                                                                ",
"                          XXXXXXXXXXXX                          ",
"                       XXXXXXXXXXXXXXXX                         ",
"                     XXXXXXXXXXXXXXXoXXXX                       ",
"                   XXXXXXXXXXXXXXXXooooXoX                      ",
"                  XXXXXXXXXXXXXXXoooooooooo                     ",
"                  XXXXXoXXXXoooooooooooooooo                    ",
"                 XXXXXXoooXoooooooooooooooooo                   ",
"                 XXXXXooooooooooooo...ooooooo                   ",
"                XXXXoo..oooooooooo....oooooooo                  ",
"               XXXXXo....ooooooooo.#..oooooooo                  ",
"               XXXXoo.#..ooooooooo....oooooooo                  ",
"               XXXXXo....oooooooooo..oooooooooo                 ",
"               XXXXXX...ooooooooooooooooooooooo                 ",
"              XXXXXXXoooooooooooooooooooooooooo                 ",
"              XXXXXXoooooooooooooooooooooooooooo                ",
"              XXXXXXooooooooo.....oooooooooooooo                ",
"              XXXXXoooooooo.......@@oooooooooooo                ",
"              XXXXXoooooo@@.......@@ooooooooooooo               ",
"              XXXXXoooooo@@.....++.@ooooooooooooo               ",
"              XXXXXoooooo@OOOO..++oooooooooooooooo              ",
"              XXXXXoooooo@oOOOOO+ooooooooooooooooo              ",
"              XXXXXoooooooooOOOO+oooooooooooooooooo             ",
"             XXoXXXooooooooooOOOoooooooooooooooooooo            ",
"            XXXXXXXoooooooooooOOooooooooooooooooooooo           ",
"            XXXoooooooooooooooOoooooooooooooooooooooo           ",
"           XXXXooooooooooooooooooooooooooooooooooooooo          ",
"           XXXXooooooooooooooooooooooooooooooooooooooo          ",
"           XXXooooooooooooooooooooooooooooooooooooooooX         ",
"          XXXXooooooooooooooooooooooooooooooooooooooooo         ",
"          .XXXooooooo..ooooooooooooooooooooXooooooooooo         ",
"          .XXXoooooooo..oooooooooooooooooo.XXoooooooooo         ",
"          .XXXXoooooooo.oooooooooooooooooo.XXoooooooooo         ",
"          .XXXXXooooooo.oooooooooooooooooo.XXXooooooooo         ",
"          .XXXXXooooooo.oooooooooooooooooo.XXXooooooooo         ",
"          .XXXooooooooo.oooooooooooooooooo.XXXXoooooooo         ",
"          X.XXXXooooooo.oooooooooooooooooo.XXXXooooooo.         ",
"           ..XXXooooooo.oooooooooooooooooo.XXXoooooooo.         ",
"            .XXXXXooooo.oooooooooooooooooo.XXXooooooo.          ",
"            .XXXXXooooo.oooooooooooooooooo.XXXoooooo..          ",
"            XX.XXXXoooo.oooooooooooooooooo.XXXooooo.oo          ",
"            XXo..XXoooo.oooooooooooooooooo.XXXooo..ooo          ",
"            XXXoo.XXoo.oooooooooooooooooooo.Xooo.ooooo          ",
"            XXXXoo.....oooooooooooooooooooo.....oooooo          ",
"            XXXXoooooooooooooooooooooooooooooooooooooo          ",
"            XXXXXooooooooooooooooooooooooooooooooooooo          ",
"            XXXXXooooooooooooooooooooooooooooooooooooo          ",
"            XXXXXXoooooooooooooooooooooooooooooooooooo          ",
"            XXXXoXoooooooooooooooooooooooooooooooooooo          ",
"            XXXXXXXooooooooooooooooooooooooooooooooooo          ",
"            XXXXXXXooooooooooooooooooooooooooooooooooo          ",
"            XXXXXXoooooooooooooooooooooooooooooooooooo          ",
"            XXXooooooooooooooooooooooooooooooooooooooo          ",
"            XXXooooooooooooooooooooooooooooooooooooooo          ",
"            XXXoooooooooooooooooooooooooooXXoooooooooo          ",
"            XXoooooooooooooooooooooooooXXXXXXXoooooooo          ",
"            XXooooooXXXXXXXXXXXXXXXXXXXX    XXXooooooo          ",
"            XooooooXXXX                      XXooooooo          ",
"            XoooooXXXXX                      XXooooooo          ",
"            XoooooXXXXX                      XXXXooooo          ",
"            XooooXXXXX                        XXXooooo          ",
"            XXoooXXXX                         XXXooooo          ",
"             XXoooXX                           XXoXoo           ",
"              XXXXX                             XXXX            "
};
