/* XPM */
static char *c9bf5dc71de348fba2c0fbe6de42dc54gCMz3hUU0MaDALrs[] = {
/* columns rows colors chars-per-pixel */
"64 64 8 1 ",
"  c None",
". c #4D2B32",
"X c #AD7757",
"o c #7A4841",
"O c #341C27",
"+ c #241527",
"@ c #090A14",
"# c white",
/* pixels */
"                                                                ",
"                                                                ",
"                                                                ",
"                                                                ",
"                                                                ",
"                                                                ",
"                                                                ",
"                                                                ",
"                                                                ",
"                                                                ",
"                                                                ",
"                                                                ",
"                                                                ",
"                                                                ",
"                                                                ",
"                                                                ",
"                                                                ",
"                                                                ",
"                                                                ",
"                                                                ",
"             ........                                           ",
"           .............                                        ",
"          ..............XXXX                XXXXXXXXXX          ",
"        ......ooo........XXXXXXXX         XXXooXXoooXXX         ",
"       ........ooo.......X.XXoXXXXXXX   XXXXXXX.OXoXooXoX       ",
"      .....oooo..ooo........ooXoooXXXXXXXXXXXXX.OXoooooXXX      ",
"     ........ooooooooo......ooooXXXXXXXXXXXXXXXX.OooooooooXX    ",
"     ........oooo..ooo........oXXooooXXXXXXXXoXXX.oo+++oo..OO.  ",
"    .....o....oo..ooo..........oooooXXooXXXXoXXooooooooo...O@@@ ",
"    ......ooooooooooooooo...oo.oooooXooXXooooXXoooooo..o..OOO@O ",
"   ......oooooooooooooooo....ooooooooooXXXooooXXoooooo...OOOO+O ",
"   .....oooo...ooo..ooo......oooooooooooXooooooooooooo...OOOO+O ",
"  ...........oooo..oooo.o...ooooooooooooXooooooooooo.oo..OOOO+O ",
"  ..........ooooooooooooo..oo.oooooooooooooooooooooo....OOO+++O ",
" ...OO.....ooooooooooooo......oooooooooooooooooo..o...OOOOOOOO  ",
" O.OO.....ooo.oooo.ooooooo..ooooooooooooooooooooo..OOOOOOOOOO   ",
" OOO......oo.oooo..ooo..o.....ooooooooooooooo.o..OOOO           ",
" OOO.OO......ooo..ooooo......oooooooooooooooo...OO              ",
"  OOOOO......oooooooooooo....oooooooooooooo.oo..O               ",
"   OOOO.OO..oooooooooooo...ooo.oooooooooo.oo....                ",
"    OO.OO..ooo.o..o..oo..O.o...ooooooo.oo..o...                 ",
"     OOOO.ooo....oo..o..OO....ooo.oooo..oo....                  ",
"     OOOO........oo.....OO.O..o...ooooo.oo..                    ",
"      OOO........o..O..OOOOO.....oo..o.....                     ",
"      OOOO..O..O...OOOOOOOOOO.O......o....                      ",
"       OOO.OO..OOOOOOOO   OOOOOOOO.......                       ",
"       ++OOO..OOO               OOO...++                        ",
"        +OOO.OOO                 +OO..+                         ",
"        +OOOOOO                  ++OO++                         ",
"        ++OO++                   ++OO+                          ",
"        +++O+                     ++O+                          ",
"        +++O+                     ++++                          ",
"         ++++                     ++++                          ",
"         +++++                     ++++                         ",
"          +++++                     ++++                        ",
"           ++++                      +++                        ",
"                                                                ",
"                                                                ",
"                                                                ",
"                                                                ",
"                                                                ",
"                                                                ",
"                                                                ",
"                                                                "
};
