/* XPM */
static char *e11d5ac744054fe0a4d4f3611050db88XDmdEMtbzJpMZHtK[] = {
/* columns rows colors chars-per-pixel */
"64 64 101 2 ",
"   c None",
".  c #685E68",
"X  c #6C616B",
"o  c #75646B",
"O  c #726671",
"+  c #736873",
"@  c #7A6D79",
"#  c #7F7079",
"$  c #AB695D",
"%  c #856A6F",
"&  c #906765",
"*  c #9E6A65",
"=  c #8A6C70",
"-  c #8E7377",
";  c #AE6D62",
":  c #A16D68",
">  c #B06F64",
",  c #AF7064",
"<  c #A4736E",
"1  c #B17166",
"2  c #B27569",
"3  c #B67A6F",
"4  c #A67671",
"5  c #A87974",
"6  c #B77C71",
"7  c #B87D72",
"8  c #BC8271",
"9  c #C48A6F",
"0  c #CB946C",
"q  c #CE996F",
"w  c #D39D6A",
"e  c #C08771",
"r  c #C38D72",
"t  c #CA9672",
"y  c #CE9C73",
"u  c #DFAC66",
"i  c #D6A46D",
"p  c #DDAD6C",
"a  c #D2A274",
"s  c #D9AC74",
"d  c #DDB175",
"f  c #E3B46B",
"g  c #EABD6B",
"h  c #E3BA75",
"j  c #F1C15F",
"k  c #FFD15C",
"l  c #EDC067",
"z  c #EEC168",
"x  c #F5C965",
"c  c #F9CD63",
"v  c #FFD461",
"b  c #FFD867",
"n  c #FFDB6D",
"m  c #E7C075",
"M  c #E9C275",
"N  c #EDC876",
"B  c #F2CF76",
"V  c #F5D376",
"C  c #F8D776",
"Z  c #FDDD74",
"A  c #FFE177",
"S  c #867A85",
"D  c #8B818B",
"F  c #918691",
"G  c #BDB7BD",
"H  c #CFA69F",
"J  c #D0A9A2",
"K  c #D4B0A9",
"L  c #D8B8B2",
"P  c #D7BDBA",
"I  c #DABEB9",
"U  c #D8C1BF",
"Y  c #C5BFC5",
"T  c #C7C2C7",
"R  c #CEC9CE",
"E  c #CFCACF",
"W  c #D0C4C6",
"Q  c #DCC8C7",
"!  c #D6CCCE",
"~  c #DECECD",
"^  c #DFD0CE",
"/  c #D1CCD0",
"(  c #D3D3D8",
")  c #D9DADF",
"_  c #DADBDF",
"`  c #DCD8DC",
"'  c #DDD9DC",
"]  c #DEDCDF",
"[  c #DEE1E5",
"{  c #DFE0E6",
"}  c #E1E0E5",
"|  c #E0E2E6",
" . c #E2E3E7",
".. c #E3E4E8",
"X. c #E8EDF2",
"o. c #F6F8FA",
"O. c #F7F9FB",
"+. c #F9FAFB",
"@. c #FAFBFC",
"#. c #FCFCFD",
"$. c white",
/* pixels */
"                                                    1 ; ; $ ; $ $ 3 7 7 6                                                       ",
"                                              > $ $ $ ; 2 6 7 $ $ 7 7 7 7 2 $ 1                                                 ",
"                                          ; $ $ $ $ 1 7 7 7 7 $ $ 7 7 7 7 2 $ 2 7 7 7                                           ",
"                                      ; $ $ $ > 1 $ 2 7 7 7 7 $ $ 7 7 7 7 2 $ 2 7 7 7 7 7                                       ",
"                                  1 $ $ $ $ 2 7 2 $ 2 7 7 7 7 $ $ 7 7 7 7 2 $ 2 7 7 7 7 7 7                                     ",
"                                ; $ $ $ ; 6 7 7 2 $ 2 7 7 7 7 $ $ 7 7 7 7 2 $ 2 7 7 7 7 7 7 7 6                                 ",
"                              ; $ $ $ ; 7 7 7 7 2 $ 2 7 7 7 7 $ $ 7 7 7 7 2 $ 2 7 7 7 7 7 7 7 7 7                               ",
"                            $ $ $ $ , 7 7 7 7 7 2 $ 2 7 7 7 7 $ $ 7 7 7 7 2 $ 2 7 7 7 7 7 7 7 7 7 2                             ",
"                          $ $ $ $ ; 7 7 7 7 7 7 2 $ 2 7 7 7 7 $ $ 7 7 7 7 2 $ 2 7 7 7 7 7 7 7 7 7 1 ;                           ",
"                        ; $ $ $ ; 6 7 7 7 7 7 7 2 $ 2 7 7 7 7 $ $ 7 7 7 7 2 $ 2 7 7 7 7 7 7 7 7 7 1 $ 2                         ",
"                      , $ $ $ $ 3 7 7 3 6 7 7 7 2 $ 2 7 7 7 7 $ $ 7 7 7 7 2 $ 2 7 7 7 6 3 7 7 7 7 1 $ 2                         ",
"                      $ $ $ $ 2 7 7 6 $ ; 7 7 7 2 $ 2 7 7 7 7 $ $ 7 7 7 7 2 $ 2 7 7 7 ; $ 6 7 7 7 1 $ 2 7                       ",
"                    ; $ $ $ $ 7 7 7 3 $ ; 7 7 7 2 $ 2 7 7 7 7 $ $ 7 7 7 7 2 $ 2 7 7 7 ; $ 3 7 7 7 1 $ 2 7 7                     ",
"                  , $ $ $ $ > 7 7 7 3 $ ; 7 7 7 2 $ 2 7 7 7 7 $ $ 7 7 7 7 2 $ 2 7 7 7 ; $ 3 7 7 7 1 $ 2 7 7                     ",
"                  ; $ $ $ $ 1 7 7 7 3 $ ; 7 7 7 2 $ 2 7 7 7 7 $ $ 7 7 7 7 2 $ 2 7 7 7 ; $ 3 7 7 7 1 $ 2 7 7 6                   ",
"                  $ $ $ $ $ 1 7 7 7 3 $ ; 7 7 7 2 $ 2 7 7 7 7 $ $ 7 7 7 7 2 $ 2 7 7 7 ; $ 3 7 7 7 1 $ 2 7 7 7                   ",
"                ; $ $ $ $ $ 1 7 7 7 3 $ ; 7 7 7 2 $ 2 7 7 7 7 $ $ 7 7 7 7 2 $ 2 7 7 7 ; $ 3 7 7 7 1 $ 2 7 7 7 7                 ",
"                $ $ $ $ ; $ 1 7 7 7 3 $ ; 7 7 7 1 $ 2 7 7 7 7 $ $ 7 7 7 7 2 $ 1 7 7 7 ; $ 3 7 7 7 1 $ 2 7 7 7 7                 ",
"                $ $ $ $ 1 $ 1 7 7 7 3 $ ; 7 7 7 6 1 6 7 7 7 7 $ $ 7 7 7 7 6 1 3 7 7 7 ; $ 3 7 7 7 1 $ 2 7 7 7 7                 ",
"              > $ $ $ $ 6 2 3 7 7 7 3 $ ; 7 7 7 7 7 7 7 7 7 7 $ $ 7 7 7 7 7 7 7 7 7 7 ; $ 3 7 7 7 3 2 6 7 7 7 7 7               ",
"              ; $ $ $ ; 7 7 7 7 7 7 3 $ ; 7 7 7 7 7 7 7 7 7 7 $ $ 7 7 7 7 7 7 7 7 7 7 ; $ 3 7 7 7 7 7 7 7 7 7 7 7               ",
"              $ $ $ $ ; 7 7 7 7 7 7 3 $ ; 7 7 7 7 7 7 7 7 7 7 $ $ 7 7 7 7 7 7 7 7 7 7 ; $ 3 7 7 7 7 7 7 7 7 7 7 7               ",
"              $ $ $ $ 1 7 7 7 7 7 7 3 $ ; 7 7 7 7 7 7 7 7 7 7 $ $ 7 7 7 7 7 7 7 7 7 7 ; $ 3 7 7 7 7 7 7 7 7 7 7 7               ",
"              $ $ $ $ 2 7 7 7 7 7 7 3 $ ; 7 7 7 7 7 7 7 7 7 7 $ $ 7 7 7 7 7 7 7 7 7 7 ; $ 3 7 7 7 7 7 7 7 7 7 7 7               ",
"              $ $ $ $ 2 7 7 7 7 7 7 3 $ ; 7 7 7 7 7 7 7 7 7 7 $ $ 7 7 7 7 7 7 7 7 7 7 ; $ 3 7 7 7 7 7 7 7 7 7 7 7               ",
"              $ $ $ $ 2 7 7 7 7 7 7 3 $ ; 7 7 7 7 7 7 7 7 7 7 $ $ 7 7 7 7 7 7 7 7 7 7 ; $ 3 7 7 7 7 7 7 7 7 7 7 7               ",
"              $ $ $ $ 2 7 7 7 7 7 7 3 $ ; 7 7 7 7 7 7 7 7 7 7 $ $ 7 7 7 7 7 7 7 7 7 7 ; $ 3 7 7 7 7 7 7 7 7 7 7 7               ",
"            % & & * * < 5 5 5 5 5 5 4 * : 5 5 5 5 5 5 5 5 5 5 * * 5 5 5 5 5 5 5 5 5 5 : * 4 5 5 5 5 5 5 5 5 5 5 5               ",
"        X . . . O @ @ @ @ @ @ @ @ @ @ @ @ @ @ @ @ @ @ @ @ @ @ @ @ @ @ @ @ @ @ @ @ @ @ @ @ @ @ @ @ @ @ @ @ @ @ @ @ @ @ @         ",
"        X . . . + @ @ @ @ @ @ @ @ @ @ @ @ @ @ @ @ @ @ @ @ @ @ @ @ @ @ @ @ @ @ @ @ @ @ @ @ @ @ @ @ @ @ @ @ @ @ @ @ @ @ @         ",
"        X . . . + @ @ @ @ @ @ @ @ @ @ @ @ @ @ @ @ @ @ @ @ @ @ @ @ @ @ @ @ @ @ @ @ @ @ @ @ @ @ @ @ @ @ @ @ @ @ @ @ @ @ @         ",
"        X . . . + @ @ @ @ @ @ @ @ @ @ @ @ @ @ @ @ @ @ @ @ @ @ @ @ @ @ @ @ @ @ @ @ @ @ @ @ @ @ @ @ @ @ @ @ @ @ @ @ @ @ @         ",
"        X . . . + @ @ @ @ @ @ @ @ @ @ @ @ @ @ @ @ @ @ @ @ @ @ @ @ @ @ @ @ @ @ @ @ @ @ @ @ @ @ @ @ @ @ @ @ @ @ @ @ @ @ @         ",
"        X . . . + @ @ @ @ @ @ @ @ @ @ @ @ @ @ @ @ @ @ @ @ @ @ @ @ @ @ @ @ @ @ @ @ @ @ @ @ @ @ @ @ @ @ @ @ @ @ @ @ @ @ @         ",
"        X . . . + @ @ F  . .` R S @ @ @ @ @ @ @ @ @ @ @ @ @ @ @ @ @ @ @ @ @ @ @ @ @ @ @ @ @ @ D { ..` / S @ @ @ @ @ @ @         ",
"        X . . . + @ @ ) X.@.$.$.G @ @ @ @ @ @ @ @ @ @ @ @ @ @ @ @ @ @ @ @ @ @ @ @ @ @ @ @ @ @ ( X.+.$.$.Y @ @ @ @ @ @ @         ",
"        X . . . O @ @ { X.$.$.$.T @ @ @ @ @ @ @ @ @ @ @ @ @ @ @ @ @ @ @ @ @ @ @ @ @ @ @ @ @ @ ) X.@.$.$.R @ @ @ @ @ @ @         ",
"          X X o o % =  .X.$.$.$.W - - - - - - - - - - - - - - = = - - - - - - - - - - - - - - ] X.@.$.$.! - - - - # @           ",
"              $ $ $ $ ~ X.O.$.$.K 7 7 7 7 7 7 7 7 7 7 7 7 7 7 $ $ 7 7 7 7 7 7 7 7 7 7 7 7 7 7 Q X.O.$.$.L 7 7 7 7               ",
"              $ $ $ $ 2 U ^ I H 7 7 7 7 7 7 7 7 7 7 7 7 7 7 7 $ $ 7 7 7 7 7 7 7 7 7 7 7 7 7 7 7 P ^ I J 7 7 7 7 7               ",
"              $ $ $ $ 2 7 7 7 7 7 7 7 7 7 7 w j u 7 7 7 7 7 7 $ $ 7 7 7 7 7 7 u j w 7 7 7 7 7 7 7 7 7 7 7 7 7 7 7               ",
"              $ $ $ $ 2 7 7 7 7 7 7 7 7 7 8 k k k 0 7 7 7 7 7 $ $ 7 7 7 7 7 0 k k k 8 7 7 7 7 7 7 7 7 7 7 7 7 7 7               ",
"              $ $ $ $ 2 7 7 7 7 7 7 7 7 7 9 k k k w 7 7 7 7 7 $ $ 7 7 7 7 7 w k k k 9 7 7 7 7 7 7 7 7 7 7 7 7 7 7               ",
"              $ $ $ $ 2 ; 3 7 7 7 7 7 7 7 9 v v v w 7 7 7 7 7 $ $ 7 7 7 7 7 w v v v 9 7 7 7 7 7 7 7 3 ; 3 7 7 7 7               ",
"              $ $ $ $ 1 $ 1 7 7 7 7 7 7 f k n A A Z s 7 7 7 7 $ $ 7 7 7 8 l v n A A C a 7 7 7 7 7 7 1 $ 2 7 7 7 7               ",
"              $ $ $ $ , $ 2 7 7 7 7 7 g k Z A A A A A m 7 7 7 $ $ 7 7 7 x k A A A A A A s 7 7 7 7 7 2 $ 2 7 7 7 7               ",
"              $ $ $ $ , $ 2 7 7 7 7 w k n A A Z A A A A a 7 7 $ $ 7 7 f k Z A A Z A A A Z r 7 7 7 7 2 $ 2 7 7 7 7               ",
"              $ $ $ $ , $ 2 7 7 7 7 x k A Z t 7 t v b A B 7 7 $ $ 7 7 v v A V r 7 i k n A h 7 7 7 7 2 $ 2 7 7 7 7               ",
"              $ $ $ $ , $ 2 7 7 7 7 v v A d 7 7 7 p k n A 8 7 $ $ 7 8 k b A y 7 7 7 z k Z B 7 7 7 7 2 $ 2 7 7 7 7               ",
"              $ $ $ $ , $ 2 7 7 7 7 k v A s 7 7 7 i k n A 8 7 $ $ 7 e k b A t 7 7 7 g k Z V 7 7 7 7 2 $ 2 7 7 7 7               ",
"              $ $ $ $ , $ 2 7 7 7 7 c k A V 8 7 8 c k A C 7 7 $ $ 7 7 k v A M 7 7 r k v A M 7 7 7 7 2 $ 2 7 7 7 7               ",
"              $ $ $ $ , $ 2 7 7 7 7 p k n A C M V n A A d 7 7 $ $ 7 7 z k A A V M C Z A A y 7 7 7 7 2 $ 2 7 7 7 7               ",
"              $ $ $ $ , $ 2 7 7 7 7 7 c k A A A A A A V 8 7 7 $ $ 7 7 e k v A A A A A A M 7 7 7 7 7 2 $ 2 7 7 7 7               ",
"              $ $ $ $ , $ 2 7 7 7 7 7 8 x v Z A A A N 8 7 7 7 $ $ 7 7 7 9 c b Z A A A h 8 7 7 7 7 7 2 $ 2 7 7 7 7               ",
"              $ $ $ $ , $ 2 7 7 7 7 7 7 7 q g g d t 7 7 7 7 7 $ $ 7 7 7 7 7 i z g s r 7 7 7 7 7 7 7 2 $ 2 7 7 7 7               ",
"              $ $ $ $ , $ 2 7 7 7 7 7 7 7 7 7 7 7 7 7 7 7 7 7 $ $ 7 7 7 7 7 7 7 7 7 7 7 7 7 7 7 7 7 2 $ 2 7 7 7 7               ",
"              $ $ $ $ , $ 2 7 7 7 3 1 7 7 7 7 7 7 7 7 7 7 7 7 $ $ 7 7 7 7 7 7 7 7 7 7 7 7 1 3 7 7 7 2 $ 2 7 7 7 7               ",
"              $ $ $ $ 1 $ 2 7 7 7 1 $ 2 7 7 7 7 7 7 7 7 7 7 7 $ $ 7 7 7 7 7 7 7 7 7 7 7 2 $ 1 7 7 7 2 $ 3 7 7 7 7               ",
"              $ $ $ $ 2 7 7 7 7 7 1 $ 2 7 7 7 7 7 7 7 7 7 7 7 $ $ 7 7 7 7 7 7 7 7 7 7 7 2 $ 1 7 7 7 7 7 7 7 7 7 7               ",
"              $ $ $ $ 2 7 7 7 7 7 1 $ 2 7 7 7 7 3 $ 2 7 7 7 7 $ $ 7 7 7 7 2 $ 3 7 7 7 7 2 $ 1 7 7 7 7 7 7 7 7 7 7               ",
"              $ $ $ $ 2 7 7 7 7 7 1 $ 2 7 7 7 7 2 $ 1 7 7 7 7 $ $ 7 7 7 7 1 $ 2 7 7 7 7 2 $ 1 7 7 7 7 7 7 7 7 7 7               ",
"              $ $ $ $ 2 7 7 7 7 7 1 $ 2 7 7 7 7 2 $ 1 7 7 7 7 $ $ 7 7 7 7 1 $ 2 7 7 7 7 2 $ 1 7 7 7 7 7 7 7 7 7 7               ",
"              $ $ $ $ 2 7 7 7 7 7 1 $ 2 7 7 7 7 2 $ 1 7 7 7 7 $ $ 7 7 7 7 1 $ 2 7 7 7 7 2 $ 1 7 7 7 7 7 7 7 7 7 7               ",
"              $ $ $ $ 2 7 7 7 7 7 1 $ 2 7 7 7 7 2 $ 1 7 7 7 7 $ $ 7 7 7 7 1 $ 2 7 7 7 7 2 $ 1 7 7 7 7 7 7 7 7 7 7               "
};
