/* XPM */
static char *d5a9d4273825471ec744b293afbc8aeeQrm2k0VQ5HKsSG8D[] = {
/* columns rows colors chars-per-pixel */
"64 64 171 2 ",
"   c None",
".  c #017C35",
"X  c #018037",
"o  c #018339",
"O  c #018C3E",
"+  c #009442",
"@  c #019A46",
"#  c #019E48",
"$  c #0D9844",
"%  c #1C9D46",
"&  c #119A45",
"*  c #01A34B",
"=  c #06A84E",
"-  c #08AA4F",
";  c #0CA64C",
":  c #0CAE50",
">  c #1DAE50",
",  c #0FB152",
"<  c #13B453",
"1  c #1ABA57",
"2  c #1EBE59",
"3  c #24B956",
"4  c #3BBB67",
"5  c #589E78",
"6  c #1FC05A",
"7  c #23C35B",
"8  c #28C75D",
"9  c #2AC95E",
"0  c #30CB5F",
"q  c #2DCC60",
"w  c #31CF61",
"e  c #35D363",
"r  c #38D665",
"t  c #3CD967",
"y  c #3EDB68",
"u  c #42DE69",
"i  c #45E26B",
"p  c #4AE66D",
"a  c #4DE96F",
"s  c #4FEB70",
"d  c #53EE71",
"f  c #56F173",
"g  c #5CF675",
"h  c #5FF877",
"j  c #65FD79",
"k  c #68FF7B",
"l  c #60F977",
"z  c #FFAC00",
"x  c #FFB300",
"c  c #FFBB00",
"v  c #FFB20A",
"b  c #FFB82C",
"n  c #FFBF32",
"m  c #FFB939",
"M  c #FFC400",
"N  c #FFCC00",
"B  c #FFCE0E",
"V  c #FFD004",
"C  c #FFD40B",
"Z  c #FFDA0C",
"A  c #FFC419",
"S  c #FFCA1C",
"D  c #FFCC15",
"F  c #FFD514",
"G  c #FFDD12",
"H  c #FFD91B",
"J  c #FFE314",
"K  c #FFE619",
"L  c #FFEA1E",
"P  c #FFC623",
"I  c #FFC72D",
"U  c #FFC031",
"Y  c #FFCB38",
"T  c #FFED23",
"R  c #FFF225",
"E  c #FFF529",
"W  c #FFFB2E",
"Q  c #FFFE33",
"!  c #FFAA4F",
"~  c #FFB945",
"^  c #FFA852",
"/  c #FEA456",
"(  c #FFB655",
")  c #FFBC5B",
"_  c #FE9D68",
"`  c #FE8F7E",
"'  c #FE947D",
"]  c #FFA264",
"[  c #FFB564",
"{  c #FFCD43",
"}  c #FE76B3",
"|  c #FE75BB",
" . c #FE7CBD",
".. c #75C085",
"X. c #FE898B",
"o. c #FE908B",
"O. c #FE8496",
"+. c #FF9B94",
"@. c #FFAA8B",
"#. c #FFA982",
"$. c #FFA49B",
"%. c #FFA993",
"&. c #FFB292",
"*. c #FE80AF",
"=. c #FE81A3",
"-. c #FE90A0",
";. c #FE82BF",
":. c #FE89B6",
">. c #FF9ABB",
",. c #FF91BD",
"<. c #D0A4B9",
"1. c #D7BABB",
"2. c #FFA3A4",
"3. c #FFB7A1",
"4. c #FFB7AD",
"5. c #FFBBBC",
"6. c #86D88C",
"7. c #FFC680",
"8. c #FFC39E",
"9. c #FE84C2",
"0. c #FF8CC6",
"q. c #FF90C7",
"w. c #FF95CA",
"e. c #FF9ACC",
"r. c #FF9FD2",
"t. c #FFA0CF",
"y. c #FFA3C5",
"u. c #FFB6CA",
"i. c #FFA4D1",
"p. c #FFA9D4",
"a. c #FFAAD4",
"s. c #FFABD5",
"d. c #FFABD7",
"f. c #FFACD5",
"g. c #FFAFD7",
"h. c #FFADD6",
"j. c #FFAAD4",
"k. c #FFADD8",
"l. c #EEB7D3",
"z. c #FFB0D7",
"x. c #FFB0D7",
"c. c #FFB3D9",
"v. c #FFB1D8",
"b. c #FFB4D9",
"n. c #FFB7DA",
"m. c #FFB5DA",
"M. c #FFB4D9",
"N. c #FFB8DB",
"B. c #FFB9DC",
"V. c #FFBADC",
"C. c #FFBCDD",
"Z. c #FFBDDE",
"A. c #FFBFDF",
"S. c #FFBEDE",
"D. c #FFBCDD",
"F. c #FFBCE0",
"G. c #FFC1DF",
"H. c #FFC0DF",
"J. c #FFC2E0",
"K. c #FFC1E1",
"L. c #FFC4E1",
"P. c #FFC5E1",
"I. c #FFC6E2",
"U. c #FFC7E2",
"Y. c #FFC7E3",
"T. c #FFC5E2",
"R. c #FFC5E2",
"E. c #FFC8E3",
"W. c #FFC9E3",
"Q. c #FFC9E4",
"!. c #FFC9E3",
/* pixels */
"                                                                                                                                ",
"                                                                                                                                ",
"                                                                                                                                ",
"                                                        i.g.n.n.n.g.t.                                                          ",
"                                                      g.K.E.Q.Q.Q.E.S.a.                                                        ",
"                                                    a.Y.E.K.c.g.g.V.Y.Y.p.                                                      ",
"                                                    V.Q.S.i.e.e.e.e.g.Y.S.e.                                                    ",
"                                e.e.i.i.e.e.e.    p.K.Y.p.e.e.e.e.e.e.n.Y.a.    p.p.p.p.i.e.                                    ",
"                            e.a.V.K.Y.Y.K.n.p.e.  a.Y.N.e.e.e.e.e.e.e.p.Y.g.c.S.Y.Y.E.Y.K.c.e.                                  ",
"                          e.g.Y.E.E.E.Y.Y.Q.Y.g.e.a.Y.g.e.e.e.w.e.e.e.e.c.S.Y.Y.S.S.S.E.E.E.N.e.                                ",
"                          i.Y.E.E.S.a.p.a.n.Y.Y.a.p.Y.p.e.e.w.w.e.e.e.i.S.Q.G.a.e.e.e.p.S.E.Y.a.                                ",
"                          g.E.E.c.e.e.e.e.e.p.S.Y.p.n.p.e.e.w.w.e.e.e.N.Q.S.i.e.e.e.e.e.e.S.Q.N.                                ",
"                          c.Q.G.e.e.e.e.e.e.e.i.S.V.r.e.e.e.w.9.e.e.p.Y.Y.p.e.e.e.e.e.e.e.a.E.S.e.                              ",
"                          g.Q.N.e.e.e.e.e.e.e.e.i.S.a.e.e.e.w. .w.e.n.E.g.e.e.e.e.e.e.e.e.t.K.S.e.                              ",
"                          p.Y.n.e.e.e.w.e.e.e.e.e.a.V.e.e.e.0.| 0.e.K.S.e.e.e.e.e.e.e.e.e.e.S.S.e.                              ",
"                          e.S.S.e.e.e.w.0.w.e.e.e.e.n.p.e.e.9.| 9.a.Y.a.e.e.e.e.e.w.w.e.e.e.S.n.                                ",
"                            g.Y.p.e.e.e.w.;.9.w.e.e.y.3.[ ( ! _ o.u.F.e.e.e.e.w.0.0.e.e.e.e.S.p.                                ",
"                            e.n.V.e.e.e.e.0.|  .;.#.n B C Z Z Z C Y &.e.e.e.q. .9.w.e.e.e.a.n.e.                                ",
"                              t.V.x.e.e.e.e.9.} / B K E Q Q Q Q W T H [ ,.9.|  .w.e.e.e.e.V.p.                                  ",
"                                t.n.g.e.e.e.w.] C R Q Q Q Q Q Q Q Q Q L / } | 0.e.e.e.e.n.a.                                    ",
"                    e.i.g.n.S.S.V.p.g.g.e.e.2.S R Q Q W L G Z Z G L W Q T ' 9.e.e.e.e.c.a.                                      ",
"                  e.x.K.E.E.E.Q.E.Y.S.g.p.e.( J Q Q R Z N N N N N N C R W { >.e.e.e.g.a.                                        ",
"                e.g.E.E.E.E.Y.S.S.S.Y.Y.V.u.I R Q E C N N c N N N N N N K T %.r.p.p.p.p.i.                                      ",
"                e.S.E.E.S.a.i.e.e.e.t.p.a.4.F W Q G N N N z x N N N N M c C 7.K.K.Y.Y.Y.K.V.n.                                  ",
"                p.Y.E.S.e.e.e.e.e.e.e.e.e.$.F Q E V N N N M M N M M N M z N ) i.i.p.p.a.n.K.E.G.c.                              ",
"                p.Y.Y.p.e.e.e.e.e.e.e.e.e.+.F Q T N N N N N N N x x N N M N ~ e.e.e.e.e.e.e.c.Y.Y.n.                            ",
"                p.Y.S.e.e.e.e.e.e.w.w.9. .X.F Q T N N c c N N N c c N N N N ^ 9.w.e.e.e.e.e.e.g.Y.Y.g.                          ",
"                i.K.S.e.e.e.e.e.e.w.9. .| O.D W R N M M M N N N N N M x N N ` |  .0.e.e.e.e.e.e.n.Q.K.i.                        ",
"                e.V.Y.i.e.e.e.e.e.e.e.e.w.:.n R W B z M N N z M N N c x N m :. . . .9.0.w.e.e.e.p.Y.E.g.                        ",
"                  g.E.V.e.e.e.e.e.e.e.e.e.e.[ J Q G c M N N z c M x N N S 2.e.e.e.w.w.0.w.w.e.e.e.S.Q.N.e.                      ",
"                  e.V.Q.S.p.e.e.e.e.e.e.e.n.5.P K R V M x N M M M c N A 8.k.e.e.e.e.e.e.e.e.e.e.e.V.Q.V.e.                      ",
"                    p.S.E.Y.S.g.i.e.e.i.S.G.i.%.P Z C N c N M z N N U $.a.K.g.e.e.e.e.e.e.e.e.e.e.S.E.g.                        ",
"                      p.x.N.n.c.p.e.i.S.Y.a.e.e.-.^ A N N N M v b _ >.e.e.c.Y.n.e.e.e.e.e.e.e.e.n.E.S.e.                        ",
"                                  e.V.Q.N.e.e.e.9.| =.+.@.#.@.$.*.| w.e.e.e.N.E.S.g.i.e.e.e.a.V.E.S.i.                          ",
"                                  g.E.Y.p.e.e.e. .| 0.e.e.e.e.e.0.| 0.e.e.e.e.c.Y.E.Y.S.S.K.E.Y.N.i.                            ",
"                                e.N.Q.S.e.e.e.e. .9.e.e.e.e.e.e.e.0.9.e.e.e.e.e.a.c.S.S.S.V.x.p.e.                              ",
"                                e.S.Q.n.e.e.e.w.9.w.e.e.e.e.e.e.e.e.0.w.e.e.e.p.S.i.e.e.e.e.e.                                  ",
"                                e.S.E.g.e.e.e.w.w.e.e.e.e.i.e.e.e.e.w.w.e.e.e.p.Y.g.                                            ",
"                                e.S.Q.x.e.e.e.w.e.e.e.e.t.a.e.e.e.e.e.e.e.e.e.g.E.n.                                            ",
"                                e.S.Q.V.e.e.e.e.e.e.e.e.n.g.a.e.e.e.e.e.e.e.e.S.Q.x.                                            ",
"                                e.V.Q.Y.p.e.e.e.e.e.e.N.N.1.D.i.e.e.e.e.e.e.n.E.K.p.                                            ",
"                                  g.E.E.G.p.e.e.e.p.S.K.1...l.K.x.p.p.p.c.S.E.Y.a.                                              ",
"                                  e.N.E.Q.Y.V.n.V.Y.K.a.6.4 <.K.E.Y.Y.E.Q.Y.S.a.                                                ",
"                                    e.x.S.Y.Y.Y.S.c.i.  p < 5 t.g.n.N.n.x.a.e.                                                  ",
"                                        e.p.p.p.e.      i < *                                                                   ",
"                                                        u < *                   8 e y y y r 7 :                                 ",
"                                                        i 1 *               i d f d p p a f h a 8                               ",
"                                                        p 1 *           r f p 8 < = * * * - 2 u h 8                             ",
"                              = < 2 7 7 < =             u 7 *         r p 8 = * * * # + # * * 1 h 8                             ",
"                        * < e p f h h h f p t 7 -       r q * *     9 w : * * * @ O O + * * * u d <                             ",
"                      = 9 g g r 2 1 1 1 7 w p d p 8 :   2 t = *   < 1 * @ + O o o O # * * * 8 l e                               ",
"                      q k d < * * * * * * * * : 7 r t 8 , t < * + O o . . . o + # * * * = 8 h a                                 ",
"                      e k f 2 * * @ + @ # * * * * * ; > & 3 e * @ % % $ @ # * * * * : 7 p h a                                   ",
"                      < p k h q = * @ O o o o o o X . . . > u < * 0 d f s p u u i a f h d t                                     ",
"                        < i k k i < * * # + + O O O + # w 8 8 w * *   8 r p a a p t w 8                                         ",
"                          : e h k g t < = * * * * = 6 a a <   t 1 * *                                                           ",
"                              2 p k k h p t e e t a k f 2     1 r - *                                                           ",
"                                : 8 p h k k k k k l i 1         8 8 * *                                                         ",
"                                      7 9 e e w 8 1 -           * 8 2 * *                                                       ",
"                                                                  = 2 < * *                                                     ",
"                                                                    * - * *                                                     ",
"                                                                                                                                ",
"                                                                                                                                ",
"                                                                                                                                "
};
