/* XPM */
static char *_6d3fa57d9604bacc06cc7b7ac135497MGIVGUvB5cQv7ntP[] = {
/* columns rows colors chars-per-pixel */
"64 64 225 2 ",
"   c None",
".  c #1E1A1B",
"X  c #1F1B1C",
"o  c #201B1C",
"O  c #201C1D",
"+  c #211C1D",
"@  c #211D1E",
"#  c #221D1F",
"$  c #221E1F",
"%  c #231E1F",
"&  c #231F20",
"*  c #242021",
"=  c #252122",
"-  c #262223",
";  c #272324",
":  c #272425",
">  c #282425",
",  c #292526",
"<  c #2A2728",
"1  c #2B2728",
"2  c #2C292A",
"3  c #2D292A",
"4  c #2E2A2B",
"5  c #2E2B2C",
"6  c #2F2B2C",
"7  c #312D2E",
"8  c #312E2F",
"9  c #322E2F",
"0  c #322F2F",
"q  c #343132",
"w  c #353132",
"e  c #353233",
"r  c #363233",
"t  c #363333",
"y  c #373434",
"u  c #383435",
"i  c #383536",
"p  c #393536",
"a  c #393637",
"s  c #3A3637",
"d  c #3A3738",
"f  c #3B3738",
"g  c #3B3839",
"h  c #3C3839",
"j  c #3D3A3A",
"k  c #3E3B3C",
"l  c #403C3D",
"z  c #403D3D",
"x  c #413E3F",
"c  c #423F40",
"v  c #433F40",
"b  c #434041",
"n  c #444142",
"m  c #474344",
"M  c #494546",
"N  c #494647",
"B  c #4A4748",
"V  c #4D4A4B",
"C  c #4F4B4C",
"Z  c #4F4C4C",
"A  c #4F4C4D",
"S  c #504D4D",
"D  c #504D4E",
"F  c #514E4E",
"G  c #534F50",
"H  c #545152",
"J  c #555253",
"K  c #565353",
"L  c #565354",
"P  c #575454",
"I  c #585555",
"U  c #585556",
"Y  c #595657",
"T  c #5A5758",
"R  c #5D5A5B",
"E  c #5E5B5B",
"W  c #5E5B5C",
"Q  c #5F5D5D",
"!  c #666363",
"~  c #676565",
"^  c #686566",
"/  c #6C6969",
"(  c #6C696A",
")  c #6D6A6B",
"_  c #6E6B6C",
"`  c #6F6C6D",
"'  c #6F6D6D",
"]  c #706D6E",
"[  c #716E6F",
"{  c #716F6F",
"}  c #726F70",
"|  c #737071",
" . c #737171",
".. c #747172",
"X. c #747272",
"o. c #757374",
"O. c #767374",
"+. c #777475",
"@. c #777575",
"#. c #787676",
"$. c #797677",
"%. c #797777",
"&. c #7A7778",
"*. c #7A7878",
"=. c #7A7879",
"-. c #7B7879",
";. c #7C797A",
":. c #7F7C7D",
">. c #7F7D7D",
",. c #807D7E",
"<. c #807E7E",
"1. c #858283",
"2. c #868384",
"3. c #868484",
"4. c #888586",
"5. c #898788",
"6. c #8A8788",
"7. c #8A8888",
"8. c #8B8989",
"9. c #8D8B8B",
"0. c #918F8F",
"q. c #929090",
"w. c #939191",
"e. c #949292",
"r. c #949293",
"t. c #959494",
"y. c #969495",
"u. c #979595",
"i. c #979596",
"p. c #9C9A9B",
"a. c #9E9C9C",
"s. c #9F9D9D",
"d. c #9F9E9E",
"f. c #A2A0A0",
"g. c #A2A0A1",
"h. c #A4A2A2",
"j. c #A5A3A4",
"k. c #A6A4A4",
"l. c #A6A5A5",
"z. c #A7A5A6",
"x. c #A9A8A8",
"c. c #ABA9AA",
"v. c #ADABAC",
"b. c #AEACAC",
"n. c #AFADAE",
"m. c #AFAEAE",
"M. c #B3B2B2",
"N. c #B5B3B4",
"B. c #BBB9BA",
"V. c #BBBABA",
"C. c #BCBABB",
"Z. c #BCBBBB",
"A. c #BDBBBC",
"S. c #C0BFBF",
"D. c #C1C0C0",
"F. c #C4C3C3",
"G. c #C5C4C4",
"H. c #C8C7C7",
"J. c #C9C8C9",
"K. c #CAC9CA",
"L. c #CDCCCC",
"P. c #CECDCD",
"I. c #CECECE",
"U. c #CFCECE",
"Y. c #D1D0D1",
"T. c LightGray",
"R. c #D4D3D3",
"E. c #D5D4D4",
"W. c #D5D4D5",
"Q. c #D6D5D6",
"!. c gray84",
"~. c #D7D6D6",
"^. c #D8D8D8",
"/. c #D9D8D8",
"(. c gray85",
"). c #DAD9D9",
"_. c #DAD9DA",
"`. c #DBDADA",
"'. c #DBDADB",
"]. c #DCDBDB",
"[. c #DDDCDC",
"{. c gray87",
"}. c #DFDEDF",
"|. c #E0DFDF",
" X c #E0DFE0",
".X c gray88",
"XX c #E1E0E0",
"oX c #E1E1E1",
"OX c #E2E2E2",
"+X c #E3E2E2",
"@X c gray89",
"#X c #E4E3E4",
"$X c #E4E4E4",
"%X c #E6E6E6",
"&X c #E7E7E7",
"*X c gray91",
"=X c #E9E8E9",
"-X c #E9E9E9",
";X c #EAE9EA",
":X c #EAEAEA",
">X c gray92",
",X c #ECECEC",
"<X c #EDECEC",
"1X c gray93",
"2X c #EEEEEE",
"3X c #EFEEEE",
"4X c #EFEFEF",
"5X c gray94",
"6X c #F1F0F0",
"7X c #F1F1F1",
"8X c #F2F1F1",
"9X c gray95",
"0X c #F3F2F2",
"qX c #F3F3F3",
"wX c #F4F4F4",
"eX c #F5F4F4",
"rX c gray96",
"tX c gray97",
"yX c #F8F8F8",
"uX c #F9F9F9",
"iX c gray98",
"pX c #FBFBFB",
"aX c #FDFDFD",
"sX c #FEFEFE",
"dX c white",
/* pixels */
"                                                                                                                                ",
"                                                                                                                                ",
"                                                                                                                                ",
"                                                                                                                                ",
"                                                                                                                                ",
"                                                                                                                                ",
"                                                              $ $                                                               ",
"                                                          $ & 4 4 & $                                                           ",
"                                                        $ 8 e.I.I.q.8 $                                                         ",
"                                                $       & t.dXdXdXdX0.&       $                                                 ",
"                                            $ = < = $ $ 8 T.dXdXdXdXR.8 $ $ = < = $                                             ",
"                                          $ A b.J.v.V X a  XdXdXdXdX+Xa X D b.J.x.B $                                           ",
"                                        $ k Q.dXdXdX_.L M *XdXdXdXdX*XM U {.dXdXdXT.k $                                         ",
"                                        $ >.dXdXdXdXdX#XQ.dXdXdXdXdXdXQ.&XdXdXdXdXdX .X                                         ",
"                                        $ 8.dXdXdXdXdXdXdXdXdXdXdXdXdXdXdXdXdXdXdXdX*.X                                         ",
"                                        $ D *XdXdXdXdXdXdXdXdXdXdXdXdXdXdXdXdXdXdX*XD $                                         ",
"                                        & = #.6XdXdXdXdXdXdXeX+X+XeXdXdXdXdXdXdX6Xo.= &                                         ",
"                                      $ o X X a.dXdXdXdXpXb.R a f R M.pXdXdXdXdXe.X X o $                                       ",
"                                    $ < P  .#.H.dXdXdXdXt., f _ / a < p.dXdXdXdXS.o.] H , $                                     ",
"                                  $ 5 l.eXdXdXdXdXdXdXJ.8 U _.dXdXQ.G 8 I.dXdXdXdXdXdXeXg.5 $                                   ",
"                                  $ +.pXdXdXdXdXdXdXdX1.; S.dXdXdXdXB., q.dXdXdXdXdXdXdXpX/ X                                   ",
"                                  $ h.dXdXdXdXdXdXdXdX` a +XdXdXdXdX+Xa ` dXdXdXdXdXdXdXdX9.$                                   ",
"                                  $ 4.dXdXdXdXdXdXdXdX*.4 I.dXdXdXdXI.4 3.dXdXdXdXdXdXdXdX&.X                                   ",
"                                  $ a H.dXdXdXdXdXdXdXN.: +.6XdXdX6X] , A.dXdXdXdXdXdXdXG.f $                                   ",
"                                    $ j >.a.j.{.dXdXdXeX..= Q a.a.R = +.eXdXdXdX_.l.g.<.g $                                     ",
"                                      $ $ $ X t.dXdXdXdX*X2.q = = q 5.2XdXdXdXdX5.. $ $ $                                       ",
"                                        & $ U {.dXdXdXdXdXpX_.B.B._.pXdXdXdXdXdX_.H $ &                                         ",
"                                        $ l Q.dXdXdXdXdXdXdXdXdXdXdXdXdXdXdXdXdXdXR.l $                                         ",
"                                        $ <.dXdXdXdXdXdXdXdXdXdXdXdXdXdXdXdXdXdXdXdX..X                                         ",
"                                        $ 8.dXdXdXdXdXpXeXdXdXdXdXdXdX6XpXdXdXdXdXdX*.X                                         ",
"                                        $ A *XdXdXdX2X;.^ 2XdXdXdXdX2X~ <.6XdXdXdX*XA $                                         ",
"                                          = ] Q.6XQ.` $ a +XdXdXdXdX+Xa $  .Q.6XR./ =                                           ",
"                                          & $ q C q $ $ q _.dXdXdXdX_.q $ $ y A q $ $                                           ",
"                                              $ X $   & = v.dXdXdXdXx.=     $ X $                                               ",
"                                                        $ n C.eXeXC.c $                                                         ",
"                                                          $ 5 H H 5 $                                                           ",
"                                                            $ $ $ $                                                             ",
"                                                              & &                                                               ",
"                                                              & &                                                               ",
"                                                              & &                                                               ",
"                                                              & &                                                               ",
"                                                              & &                                                               ",
"                                                & = = $       & &       $ $ = &                                                 ",
"                                                $ c l.T & $   & &   & $ l q.H $                                                 ",
"                                                $ 4 D.2X#.= $ & & $ & ! ].|.b $                                                 ",
"                                                  $ U *X6X#.& & & $ } 2X6X` $                                                   ",
"                                                    $ ] 2X2XR $ $ W *X6X>.= $                                                   ",
"                                                    $ & ` &XF.5 8 J.&X] = $                                                     ",
"                                                      $ $ C t.b j >.m $ $                                                       ",
"                                                          $ & = & $ $                                                           ",
"                                                              & &                                                               ",
"                                                              & &                                                               ",
"                                                              & &                                                               ",
"                                                              & &                                                               ",
"                                                              & &                                                               ",
"                                                              & &                                                               ",
"                                                              & &                                                               ",
"                                                                                                                                ",
"                                                                                                                                ",
"                                                                                                                                ",
"                                                                                                                                ",
"                                                                                                                                ",
"                                                                                                                                ",
"                                                                                                                                "
};
