/* XPM */
static char *c78de64bb3884967960058454fe8ff92ISavsy4kJ455Qzme[] = {
/* columns rows colors chars-per-pixel */
"16 16 98 2 ",
"   c #2E2822",
".  c #27221D",
"X  c #26211C",
"o  c #2C2621",
"O  c #28221E",
"+  c #2F2923",
"@  c #2B2520",
"#  c #342D27",
"$  c #2A251F",
"%  c #24201B",
"&  c #211D19",
"*  c #25201C",
"=  c #26211D",
"-  c #2B2620",
";  c #29241F",
":  c #221E1A",
">  c #332D26",
",  c #28231E",
"<  c #241F1B",
"1  c #201C18",
"2  c #302A24",
"3  c #373029",
"4  c #352E27",
"5  c #322B25",
"6  c #362F29",
"7  c #342E27",
"8  c #332C26",
"9  c #312A24",
"0  c #3A332C",
"q  c #3F372F",
"w  c #50453C",
"e  c #493F36",
"r  c #423931",
"t  c #39322B",
"y  c #3D352E",
"u  c #3E362E",
"i  c #4C4239",
"p  c #4A4037",
"a  c #403830",
"s  c #312B25",
"d  c #5B4F44",
"f  c #5C5044",
"g  c #433A32",
"h  c #463C34",
"j  c #463D34",
"k  c #473D35",
"l  c #443B33",
"z  c #5F5247",
"x  c #615448",
"c  c #362F28",
"v  c #483E35",
"b  c #423A32",
"n  c #605448",
"m  c #473E35",
"M  c #3C342D",
"N  c #453C33",
"B  c #5F5246",
"V  c #605347",
"C  c #3B332C",
"Z  c #483F36",
"A  c #5F5347",
"S  c #5D5045",
"D  c #403730",
"F  c #4F453B",
"G  c #3F362F",
"H  c #39312A",
"J  c #3D352D",
"K  c #4B4138",
"L  c #4D4339",
"P  c #463D35",
"I  c #4D433A",
"U  c #50453B",
"Y  c #4F443B",
"T  c #5E5246",
"R  c #494037",
"E  c #4E443A",
"W  c #3E352E",
"Q  c #38302A",
"!  c #453C34",
"~  c #3A322B",
"^  c #443B32",
"/  c #322C26",
"(  c #483E36",
")  c #4A4137",
"_  c #38312A",
"`  c #372F29",
"'  c #2F2823",
"]  c #2D2721",
"[  c #4C4238",
"{  c #3B342C",
"}  c #413830",
"|  c #2D2722",
" . c #2A2520",
".. c #2E2823",
"X. c #322C25",
"o. c #2A241F",
"O. c #231E1A",
"+. c white",
/* pixels */
"  . . X o O + @ # O $ @ % & + # ",
"* = o = - ; o   : > : o @ ; # . ",
"o o $ * , $ ; , % ; o < 1 o = % ",
"< 2 3 + # 2   4 5 6 7 o + 2 8 X ",
"9 0 q w e r q r t y u i p 0 a s ",
"> p r d f g h j k l g z x k l c ",
"9 v b x n j j l m M N B V N C s ",
"9 y l z f Z j j C j h A S j u 4 ",
"  D a F p G D H u r J K L q q - ",
"8 P I U Y i r d f T p K R E l + ",
"+ # W g g Q ! ~ t j # a ^ c 4 ; ",
"/ # > L y D E p ( ) C R i _ # + ",
"5 9 ` u R u y M q g t L F H 9 ' ",
"] , c [ Y J { g } y M K K | 7 > ",
"= + + | # # 2 9 5 2 +  .+ ..X.$ ",
": ] o.  s 9 2   9 + 4 ] / O.< < "
};
