/* XPM */
static char *_bd58bc6e9564536a1d3e0da1dfbabc4B2hR4ZQYS8PhpiMn[] = {
/* columns rows colors chars-per-pixel */
"16 16 81 1 ",
"  c #352E27",
". c #2C2621",
"X c #2E2822",
"o c #2B2620",
"O c #2A241F",
"+ c #28221E",
"@ c #332C26",
"# c #27221D",
"$ c #1E1A17",
"% c #26211D",
"& c #221E1A",
"* c #26211C",
"= c #211D19",
"- c #28231E",
"; c #342E27",
": c #2F2923",
"> c #1F1B17",
", c #29241F",
"< c #1C1815",
"1 c #2B2520",
"2 c #2D2722",
"3 c #2A251F",
"4 c #241F1B",
"5 c #24201B",
"6 c #2D2721",
"7 c #39312A",
"8 c #322B25",
"9 c #302A24",
"0 c #332D26",
"q c #312B25",
"w c #312A24",
"e c #5A4E43",
"r c #584C41",
"t c #463D34",
"y c #4B4138",
"u c #413931",
"i c #453C33",
"p c #473E35",
"a c #5D5045",
"s c #5E5246",
"d c #231E1A",
"f c #423931",
"g c #322C26",
"h c #342D27",
"j c #352E28",
"k c #493F36",
"l c #362F28",
"z c #433A32",
"x c #3E362E",
"c c #5F5247",
"v c #5B4F43",
"b c #3B332C",
"n c #423A32",
"m c #625549",
"M c #3D352D",
"N c #25201C",
"B c #3A332C",
"V c #4F443B",
"C c #4C4238",
"Z c #3C342D",
"A c #3D352E",
"S c #403730",
"D c #4E443A",
"F c #4A4037",
"G c #38312A",
"H c #4C4239",
"J c #362F29",
"K c #373029",
"L c #3A322B",
"P c #4D433A",
"I c #3F372F",
"U c #4E433A",
"Y c #443B32",
"T c #413830",
"R c #38302A",
"E c #52473D",
"W c #2C2721",
"Q c #201C18",
"! c #2A2520",
"~ c #302923",
"^ c white",
/* pixels */
" .XooO+@#O$%&%.*",
"# =#+-;&:#%>+,<*",
",+*-1-%2=%344X15",
"6o-7 X8-90q9w,,1",
"3O:ertytuipasX5d",
"O1f8X @9ghg9jk@d",
"-lu@;Xj:h26l:z %",
"@;k 99o ;wq+@tg%",
"+wxcvikzbpnamM::",
"N2BkVMCZ7ASDFjX-",
":8GHyxHJbDKCFLX9",
"::KPyIHUPybMy8:q",
"9qbyHYZbTxTyMR;9",
"glwPEMZbuMIVUlXq",
"296:1O9Ww216X8+,",
"61Q! g2:~o8h:%#o"
};
